<svg width="307.41078491210936px" height="155.36000366210936px" xmlns="http://www.w3.org/2000/svg" viewBox="96.29460754394532 -2.680001831054682 307.41078491210936 155.36000366210936" style="background: rgba(0, 0, 0, 0);" preserveAspectRatio="xMidYMid"><defs><filter id="editing-extrusion" x="-100%" y="-100%" width="300%" height="300%"><feFlood result="color1" flood-color="#444"></feFlood><feConvolveMatrix order="8,8" divisor="1" kernelMatrix="1 0 0 0 0 0 0 0 0 1 0 0 0 0 0 0 0 0 1 0 0 0 0 0 0 0 0 1 0 0 0 0 0 0 0 0 1 0 0 0 0 0 0 0 0 1 0 0 0 0 0 0 0 0 1 0 0 0 0 0 0 0 0 1" in="SourceAlpha" result="extrude"></feConvolveMatrix><feComposite in="color1" in2="extrude" result="comp-extrude" operator="in"></feComposite><feOffset dx="4" dy="4" in="comp-extrude" result="offset-extrude"></feOffset><feMerge><feMergeNode in="offset-extrude"></feMergeNode><feMergeNode in="SourceGraphic"></feMergeNode></feMerge></filter></defs><g filter="url(#editing-extrusion)"><g transform="translate(156.48587465286255, 106.68000030517578)"><path d="M55.30-47.49L55.30-47.49L55.30-47.49Q51.97-42.69 47.87-35.33L47.87-35.33L47.87-35.33Q43.78-27.97 41.34-22.98L41.34-22.98L38.91-17.98L38.91-17.98Q32.32-4.29 32.32 1.66L32.32 1.66L32.32 1.66Q32.32 1.79 32.35 2.18L32.35 2.18L32.35 2.18Q32.38 2.56 32.38 2.82L32.38 2.82L32.38 2.82Q32.38 3.84 31.81 3.84L31.81 3.84L31.81 3.84Q30.72 3.84 29.44 1.95L29.44 1.95L29.44 1.95Q28.16 0.06 28.16-3.07L28.16-3.07L28.16-3.07Q28.16-5.95 29.54-10.11L29.54-10.11L29.54-10.11Q30.91-14.27 33.60-19.62L33.60-19.62L33.60-19.62Q36.29-24.96 38.11-28.22L38.11-28.22L38.11-28.22Q39.94-31.49 42.94-36.74L42.94-36.74L42.94-36.74Q43.14-37.12 43.14-37.31L43.14-37.31L43.14-37.31Q43.01-37.63 42.82-37.63L42.82-37.63L42.82-37.63Q42.43-37.63 42.05-37.31L42.05-37.31L42.05-37.31Q38.27-34.24 32.13-26.88L32.13-26.88L32.13-26.88Q25.98-19.52 21.76-13.70L21.76-13.70L17.47-7.87L17.47-7.87Q16.45-6.34 15.81-6.34L15.81-6.34L15.81-6.34Q15.62-6.34 15.49-6.46L15.49-6.46L15.49-6.46Q15.36-6.59 15.30-6.82L15.30-6.82L15.30-6.82Q15.23-7.04 15.20-7.23L15.20-7.23L15.20-7.23Q15.17-7.42 15.17-7.55L15.17-7.55L15.17-7.68L15.17-7.68Q15.62-11.65 16.48-18.75L16.48-18.75L16.48-18.75Q17.34-25.86 17.92-30.72L17.92-30.72L17.92-30.72Q18.50-35.58 18.50-35.71L18.50-35.71L18.50-35.71Q18.50-36.35 18.24-36.35L18.24-36.35L18.24-36.35Q18.11-36.35 17.89-36.16L17.89-36.16L17.89-36.16Q17.66-35.97 17.54-35.78L17.54-35.78L17.41-35.58L17.41-35.58Q14.66-31.49 11.52-24.99L11.52-24.99L11.52-24.99Q8.38-18.50 6.46-13.50L6.46-13.50L6.46-13.50Q5.06-9.92 3.58-6.94L3.58-6.94L3.58-6.94Q2.11-3.97 0.99-2.34L0.99-2.34L0.99-2.34Q-0.13-0.70-1.06 0.42L-1.06 0.42L-1.06 0.42Q-1.98 1.54-2.50 1.92L-2.50 1.92L-3.01 2.30L-3.01 2.30Q-3.71 2.88-4.10 2.88L-4.10 2.88L-4.10 2.88Q-4.48 2.88-4.48 2.24L-4.48 2.24L-4.42 1.66L-4.42 1.66Q-3.78-1.73 1.18-11.26L1.18-11.26L1.18-11.26Q6.14-20.80 10.82-28.67L10.82-28.67L15.49-36.48L19.01-42.56L19.01-42.56Q21.63-50.05 23.04-50.05L23.04-50.05L23.04-50.05Q24-50.05 24-46.78L24-46.78L24-46.78Q22.02-22.98 22.02-19.58L22.02-19.58L22.02-19.58Q22.02-18.62 22.40-18.62L22.40-18.62L22.40-18.62Q22.78-18.62 23.30-19.33L23.30-19.33L23.30-19.33Q24.13-20.42 25.60-22.27L25.60-22.27L25.60-22.27Q27.07-24.13 31.23-28.93L31.23-28.93L31.23-28.93Q35.39-33.73 39.07-37.57L39.07-37.57L39.07-37.57Q42.75-41.41 47.10-44.93L47.10-44.93L47.10-44.93Q51.46-48.45 54.27-49.22L54.27-49.22L54.27-49.22Q54.91-49.34 55.10-49.34L55.10-49.34L55.10-49.34Q55.87-49.34 55.87-48.77L55.87-48.77L55.87-48.77Q55.87-48.26 55.30-47.49ZM56.96-4.03L56.96-4.03L56.96-4.03Q51.65 0.83 49.66 0.83L49.66 0.83L49.66 0.83Q48.77 0.83 48.77-0.19L48.77-0.19L48.77-0.19Q48.77-1.47 49.89-4.10L49.89-4.10L49.89-4.10Q51.01-6.72 52.16-8.70L52.16-8.70L53.31-10.69L53.31-10.69Q53.57-11.14 53.57-11.26L53.57-11.26L53.57-11.26Q53.57-11.39 53.44-11.39L53.44-11.39L53.44-11.39Q53.18-11.39 52.48-10.69L52.48-10.69L52.48-10.69Q50.56-8.58 48.10-6.18L48.10-6.18L48.10-6.18Q45.63-3.78 44.10-2.43L44.10-2.43L42.62-1.15L42.62-1.15Q40.13 0.77 38.78 0.77L38.78 0.77L38.78 0.77Q37.38 0.77 37.38-1.41L37.38-1.41L37.38-1.41Q37.38-2.50 37.98-4.74L37.98-4.74L37.98-4.74Q38.59-6.98 38.91-7.74L38.91-7.74L38.91-7.74Q40.38-11.33 42.59-14.72L42.59-14.72L42.59-14.72Q44.80-18.11 47.81-21.22L47.81-21.22L47.81-21.22Q50.82-24.32 54.82-26.24L54.82-26.24L54.82-26.24Q58.82-28.16 63.10-28.16L63.10-28.16L63.10-28.16Q66.69-28.16 66.69-27.07L66.69-27.07L66.69-27.07Q66.69-26.43 65.09-26.43L65.09-26.43L65.09-26.43Q59.20-26.43 54.05-21.41L54.05-21.41L54.05-21.41Q48.90-16.38 45.70-9.86L45.70-9.86L45.70-9.86Q44.80-8.06 44.80-6.85L44.80-6.85L44.80-6.85Q44.80-6.14 45.25-6.14L45.25-6.14L45.25-6.14Q46.02-6.14 47.23-7.23L47.23-7.23L47.23-7.23Q48-7.94 49.31-9.09L49.31-9.09L49.31-9.09Q50.62-10.24 53.57-13.50L53.57-13.50L53.57-13.50Q56.51-16.77 58.24-19.58L58.24-19.58L58.24-19.58Q58.50-20.10 59.04-20.80L59.04-20.80L59.04-20.80Q59.58-21.50 61.12-22.69L61.12-22.69L61.12-22.69Q62.66-23.87 64.19-23.87L64.19-23.87L64.19-23.87Q65.02-23.87 65.02-23.42L65.02-23.42L65.02-23.42Q65.02-23.30 64.83-22.98L64.83-22.98L64.83-22.98Q64.58-22.46 63.39-20.42L63.39-20.42L63.39-20.42Q62.21-18.37 61.18-16.54L61.18-16.54L61.18-16.54Q60.16-14.72 59.01-12.58L59.01-12.58L59.01-12.58Q57.86-10.43 57.18-8.90L57.18-8.90L57.18-8.90Q56.51-7.36 56.51-6.85L56.51-6.85L56.51-6.85Q56.51-6.46 56.83-6.46L56.83-6.46L56.83-6.46Q57.79-6.46 61.50-10.18L61.50-10.18L61.50-10.18Q64.32-13.12 68.10-17.41L68.10-17.41L68.10-17.41Q68.29-17.60 68.42-17.60L68.42-17.60L68.42-17.60Q68.54-17.60 68.54-17.34L68.54-17.34L68.54-17.34Q68.54-16.13 67.58-14.98L67.58-14.98L67.58-14.98Q61.31-8 56.96-4.03ZM83.46-6.21L83.46-6.21L83.46-6.21Q75.97 0.83 73.60 0.83L73.60 0.83L73.60 0.83Q72.51 0.83 72.51-0.32L72.51-0.32L72.51-0.32Q72.51-1.02 72.83-2.08L72.83-2.08L72.83-2.08Q73.15-3.14 73.63-4.19L73.63-4.19L73.63-4.19Q74.11-5.25 74.56-6.14L74.56-6.14L74.56-6.14Q75.01-7.04 75.46-7.81L75.46-7.81L75.46-7.81Q75.90-8.58 75.90-8.64L75.90-8.64L75.90-8.64Q76.86-10.37 78.78-13.47L78.78-13.47L78.78-13.47Q80.70-16.58 81.86-18.59L81.86-18.59L81.86-18.59Q83.01-20.61 83.01-21.06L83.01-21.06L83.01-21.06Q83.01-21.38 82.69-21.38L82.69-21.38L81.79-21.06L81.79-21.06Q78.85-18.94 74.75-14.50L74.75-14.50L74.75-14.50Q70.66-10.05 68.03-6.66L68.03-6.66L65.41-3.33L65.41-3.33Q64.58-2.11 63.94-1.34L63.94-1.34L63.94-1.34Q63.30-0.58 62.11 0.16L62.11 0.16L62.11 0.16Q60.93 0.90 59.71 0.90L59.71 0.90L59.71 0.90Q58.82 0.90 58.82 0.38L58.82 0.38L58.82 0.38Q58.82-0.13 60.03-2.59L60.03-2.59L60.03-2.59Q61.25-5.06 62.46-7.30L62.46-7.30L63.68-9.47L69.95-20.48L69.95-20.48Q70.91-22.08 71.52-22.94L71.52-22.94L71.52-22.94Q72.13-23.81 73.22-25.12L73.22-25.12L73.22-25.12Q74.30-26.43 75.55-27.07L75.55-27.07L75.55-27.07Q76.80-27.71 78.21-27.84L78.21-27.84L78.21-27.84Q78.72-27.84 78.72-27.39L78.72-27.39L78.72-27.39Q78.72-27.01 78.53-26.75L78.53-26.75L78.53-26.75Q77.06-24.45 74.02-19.14L74.02-19.14L74.02-19.14Q70.98-13.82 70.14-12.22L70.14-12.22L70.14-12.22Q69.95-11.84 69.95-11.65L69.95-11.65L69.95-11.65Q69.95-11.52 70.08-11.52L70.08-11.52L70.08-11.52Q70.21-11.52 70.72-11.90L70.72-11.90L70.72-11.90Q71.94-13.31 73.89-15.42L73.89-15.42L73.89-15.42Q75.84-17.54 80.51-21.79L80.51-21.79L80.51-21.79Q85.18-26.05 88.19-27.52L88.19-27.52L88.19-27.52Q88.90-27.84 89.54-27.84L89.54-27.84L89.54-27.84Q90.43-27.84 90.43-26.82L90.43-26.82L90.43-26.82Q89.92-23.81 85.50-16.51L85.50-16.51L85.50-16.51Q80.64-8.51 80.64-7.04L80.64-7.04L80.64-7.04Q80.64-6.53 81.09-6.53L81.09-6.53L81.09-6.53Q81.41-6.53 81.82-6.75L81.82-6.75L81.82-6.75Q82.24-6.98 82.75-7.39L82.75-7.39L82.75-7.39Q83.26-7.81 83.62-8.13L83.62-8.13L83.62-8.13Q83.97-8.45 84.54-8.99L84.54-8.99L84.54-8.99Q85.12-9.54 85.25-9.66L85.25-9.66L85.25-9.66Q87.94-12.35 92.35-17.41L92.35-17.41L92.35-17.41Q92.54-17.60 92.67-17.60L92.67-17.60L92.67-17.60Q92.80-17.60 92.80-17.34L92.80-17.34L92.80-17.34Q92.80-16.13 91.84-14.98L91.84-14.98L91.84-14.98Q87.10-9.73 83.46-6.21ZM103.87-21.70L103.87-21.70L103.87-21.70Q104.64-23.30 104.64-24.51L104.64-24.51L104.64-24.51Q104.64-25.54 104-25.54L104-25.54L104-25.54Q103.62-25.54 103.14-25.31L103.14-25.31L103.14-25.31Q102.66-25.09 102.40-24.83L102.40-24.83L102.08-24.58L102.08-24.58Q100.10-22.85 97.12-18.27L97.12-18.27L97.12-18.27Q94.14-13.70 94.14-12.42L94.14-12.42L94.14-12.42Q94.14-12.16 94.27-12.16L94.27-12.16L94.27-12.16Q94.66-12.16 95.97-12.80L95.97-12.80L95.97-12.80Q97.28-13.44 99.74-15.81L99.74-15.81L99.74-15.81Q102.21-18.18 103.87-21.70ZM100.99-7.04L100.99-7.04L100.99-7.04Q104.38-10.18 110.72-17.41L110.72-17.41L110.72-17.41Q110.91-17.60 111.04-17.60L111.04-17.60L111.04-17.60Q111.17-17.60 111.17-17.34L111.17-17.34L111.17-17.34Q111.17-16.13 110.21-14.98L110.21-14.98L110.21-14.98Q105.47-9.73 101.82-6.21L101.82-6.21L101.82-6.21Q99.14-3.52 95.42-1.06L95.42-1.06L95.42-1.06Q91.71 1.41 89.28 1.41L89.28 1.41L89.28 1.41Q86.34 1.41 86.34-2.69L86.34-2.69L86.34-2.69Q86.34-9.47 91.36-16.90L91.36-16.90L91.36-16.90Q96.38-24.32 102.98-26.94L102.98-26.94L102.98-26.94Q105.73-28.10 107.97-28.10L107.97-28.10L107.97-28.10Q110.46-28.10 110.46-26.11L110.46-26.11L110.46-26.11Q110.46-22.40 105.22-17.60L105.22-17.60L105.22-17.60Q99.97-12.80 93.44-10.30L93.44-10.30L93.44-10.30Q93.18-10.24 92.99-9.86L92.99-9.86L92.99-9.86Q92.03-7.23 92.03-5.18L92.03-5.18L92.03-5.18Q92.03-2.88 93.76-2.88L93.76-2.88L93.76-2.88Q96.51-2.88 100.99-7.04ZM119.74-7.30L119.74-7.30L119.74-7.30Q118.59-4.16 116.10-2.02L116.10-2.02L116.10-2.02Q113.60 0.13 111.46 0.90L111.46 0.90L111.46 0.90Q109.31 1.66 107.58 1.66L107.58 1.66L107.58 1.66Q102.91 1.66 102.91-1.98L102.91-1.98L102.91-1.98Q102.91-5.70 107.01-8.70L107.01-8.70L107.01-8.70Q108.93-10.11 111.17-10.56L111.17-10.56L111.17-10.56Q111.49-10.56 111.49-10.30L111.49-10.30L111.49-10.30Q111.49-10.18 111.36-10.05L111.36-10.05L111.36-10.05Q109.76-8.83 108.32-6.27L108.32-6.27L108.32-6.27Q106.88-3.71 106.88-1.79L106.88-1.79L106.88-1.79Q106.88 0.13 108.48 0.13L108.48 0.13L108.48 0.13Q109.76 0.13 111.01-0.93L111.01-0.93L111.01-0.93Q112.26-1.98 112.90-3.07L112.90-3.07L113.54-4.10L113.54-4.10Q114.82-6.14 115.68-10.62L115.68-10.62L115.68-10.62Q116.54-15.10 116.80-18.56L116.80-18.56L116.99-22.02L116.99-22.02Q116.99-22.53 116.80-22.53L116.80-22.53L116.54-22.40L110.21-14.98L110.21-14.98Q109.50-14.14 109.25-14.14L109.25-14.14L109.25-14.14Q108.93-14.14 108.93-14.59L108.93-14.59L108.93-14.59Q108.93-15.42 109.38-15.87L109.38-15.87L109.95-16.58L109.95-16.58Q117.25-24.77 118.27-26.50L118.27-26.50L118.27-26.50Q119.23-27.97 121.09-29.06L121.09-29.06L121.09-29.06Q122.88-30.08 125.31-30.08L125.31-30.08L125.31-30.08Q125.95-30.08 125.95-29.57L125.95-29.57L125.95-29.57Q125.95-29.25 125.44-28.99L125.44-28.99L125.44-28.99Q125.25-28.93 124.96-28.70L124.96-28.70L124.96-28.70Q124.67-28.48 123.94-27.65L123.94-27.65L123.94-27.65Q123.20-26.82 122.62-25.73L122.62-25.73L122.62-25.73Q122.05-24.64 121.60-22.69L121.60-22.69L121.60-22.69Q121.15-20.74 121.15-18.37L121.15-18.37L121.15-18.37Q121.15-11.01 119.74-7.30ZM145.15-9.66L145.15-9.66L145.15-9.66Q147.84-12.35 152.26-17.41L152.26-17.41L152.26-17.41Q152.45-17.60 152.58-17.60L152.58-17.60L152.58-17.60Q152.70-17.60 152.70-17.34L152.70-17.34L152.70-17.34Q152.70-16.13 151.74-14.98L151.74-14.98L151.74-14.98Q147.01-9.73 143.36-6.21L143.36-6.21L143.36-6.21Q135.68 0.90 133.25 0.90L133.25 0.90L133.25 0.90Q132.29 0.90 132.29-0.32L132.29-0.32L132.29-0.32Q132.29-2.62 134.91-7.33L134.91-7.33L134.91-7.33Q137.54-12.03 140.13-16.10L140.13-16.10L140.13-16.10Q142.72-20.16 142.72-20.86L142.72-20.86L142.72-20.86Q142.72-21.25 142.34-21.25L142.34-21.25L142.34-21.25Q140.80-21.25 136.51-16.51L136.51-16.51L136.51-16.51Q132.22-11.78 129.28-8L129.28-8L129.28-8Q126.02-3.90 123.62-1.47L123.62-1.47L123.62-1.47Q121.22 0.96 120.45 1.28L120.45 1.28L119.62 1.66L119.62 1.66Q119.04 1.66 119.04 1.02L119.04 1.02L119.04 1.02Q119.04 0 120.19-2.62L120.19-2.62L120.19-2.62Q121.34-5.25 122.50-7.36L122.50-7.36L123.65-9.47L133.63-27.39L133.63-27.39Q145.41-48.19 152.19-56.96L152.19-56.96L152.19-56.96Q154.11-59.52 154.88-59.52L154.88-59.52L154.88-59.52Q155.26-59.52 155.26-59.01L155.26-59.01L155.26-59.01Q155.26-57.66 153.22-53.50L153.22-53.50L153.22-53.50Q143.17-35.39 139.26-28.42L139.26-28.42L139.26-28.42Q136.90-24.19 134.98-20.90L134.98-20.90L134.98-20.90Q133.06-17.60 132.26-16.26L132.26-16.26L132.26-16.26Q131.46-14.91 130.88-13.92L130.88-13.92L130.88-13.92Q130.30-12.93 129.98-12.22L129.98-12.22L129.98-12.22Q129.92-12.03 129.92-11.84L129.92-11.84L129.92-11.84Q129.92-11.52 130.05-11.52L130.05-11.52L130.05-11.52Q130.18-11.52 130.56-11.90L130.56-11.90L130.56-11.90Q144.90-27.84 149.38-27.84L149.38-27.84L149.38-27.84Q150.27-27.84 150.27-26.94L150.27-26.94L150.27-26.94Q150.27-26.69 150.02-25.82L150.02-25.82L150.02-25.82Q149.76-24.96 148.54-22.34L148.54-22.34L148.54-22.34Q147.33-19.71 145.34-16.51L145.34-16.51L145.34-16.51Q144.13-14.72 142.27-11.39L142.27-11.39L142.27-11.39Q140.42-8.06 140.42-7.04L140.42-7.04L140.42-7.04Q140.42-6.46 140.99-6.46L140.99-6.46L140.99-6.46Q141.18-6.46 141.54-6.62L141.54-6.62L141.54-6.62Q141.89-6.78 142.34-7.17L142.34-7.17L142.34-7.17Q142.78-7.55 143.14-7.87L143.14-7.87L143.14-7.87Q143.49-8.19 144.16-8.80L144.16-8.80L144.16-8.80Q144.83-9.41 145.15-9.66ZM200.13-44.54L200.13-44.54L200.13-44.54Q197.25-44.54 192.26-40.06L192.26-40.06L192.26-40.06Q190.53-38.66 190.21-37.76L190.21-37.76L190.21-37.76Q188.16-32.38 186.18-20.77L186.18-20.77L186.18-20.77Q184.19-9.15 184.19-3.58L184.19-3.58L184.19-3.58Q184.19-1.79 184.32-0.42L184.32-0.42L184.32-0.42Q184.45 0.96 184.58 1.41L184.58 1.41L184.70 1.92L184.70 1.92Q184.83 2.56 184.83 2.62L184.83 2.62L184.83 2.62Q184.83 3.33 184.19 3.33L184.19 3.33L184.19 3.33Q183.49 3.33 182.46 2.53L182.46 2.53L182.46 2.53Q181.44 1.73 180.61 0.32L180.61 0.32L180.61 0.32Q179.01-2.50 179.01-8.19L179.01-8.19L179.01-8.19Q179.01-16.96 183.17-29.63L183.17-29.63L183.17-29.63Q183.36-30.40 183.36-30.66L183.36-30.66L183.36-30.66Q183.36-31.10 183.10-31.10L183.10-31.10L182.27-30.59L182.27-30.59Q177.60-26.82 172.03-19.52L172.03-19.52L172.03-19.52Q170.05-16.96 168.19-14.02L168.19-14.02L168.19-14.02Q166.34-11.07 165.50-9.41L165.50-9.41L164.67-7.74L164.67-7.74Q163.14-4.42 160-0.77L160-0.77L160-0.77Q156.86 2.88 154.75 2.88L154.75 2.88L154.75 2.88Q154.05 2.88 154.05 2.18L154.05 2.18L154.24 1.34L154.24 1.34Q154.94-0.64 160.19-10.91L160.19-10.91L160.19-10.91Q165.44-21.18 168.58-26.62L168.58-26.62L168.58-26.62Q171.58-31.81 174.46-36.42L174.46-36.42L174.46-36.42Q177.34-41.02 178.75-43.01L178.75-43.01L180.16-45.06L180.16-45.06Q180.48-45.50 180.99-46.18L180.99-46.18L180.99-46.18Q181.50-46.85 183.10-48L183.10-48L183.10-48Q184.70-49.15 186.24-49.22L186.24-49.22L186.24-49.22Q186.94-49.22 186.94-48.51L186.94-48.51L186.94-48.51Q186.94-48.06 186.62-47.49L186.62-47.49L186.62-47.49Q178.43-34.37 174.91-27.07L174.91-27.07L174.91-27.07Q174.85-26.69 174.85-26.43L174.85-26.43L174.85-26.43Q174.85-26.05 175.04-26.05L175.04-26.05L175.04-26.05Q175.30-26.05 175.81-26.56L175.81-26.56L182.34-33.15L182.34-33.15Q199.04-49.47 203.90-49.54L203.90-49.54L203.90-49.54Q205.70-49.54 205.70-47.42L205.70-47.42L205.70-47.42Q205.70-45.76 204.70-44L204.70-44L204.70-44Q203.71-42.24 202.82-42.24L202.82-42.24L202.82-42.24Q202.43-42.24 202.37-42.75L202.37-42.75L202.37-42.75Q202.30-42.94 202.21-43.23L202.21-43.23L202.21-43.23Q202.11-43.52 201.54-44.03L201.54-44.03L201.54-44.03Q200.96-44.54 200.13-44.54Z" fill="#ccc"></path></g></g><style>text {
  font-size: 64px;
  font-family: Arial Black;
  dominant-baseline: central;
  text-anchor: middle;
}</style></svg>